# xmcd
#
# Track frame offsets:
#	150
#	11102
#	24076
#	36226
#	49206
#	60605
#	73128
#	83853
#	98633
#	112146
#	125026
#	137826
#	150827
#	162227
#	173928
#	187643
#	199806
#
# Disc length: 2872 seconds
#
# Revision: 0
# Processed by: cddbd v1.5.2PL0 Copyright (c) Steve Scherf et al.
# Submitted via: EasyCDDAExtractor 16.1.0.1
#
DISCID=e20b3611
DTITLE=Delbert McClinton - Under Suspicion-The ABC Sessions [Disc 2]
DYEAR=2013
DGENRE=Blues
TTITLE0=Lipstick, Powder And Paint
TTITLE1=Pledging My Love
TTITLE2=One Kiss Led To Another
TTITLE3=)When She Wants Good Lovin') My Baby Comes To Me
TTITLE4=Special Love Song
TTITLE5=Let The Good Times Roll
TTITLE6=Victim Of Life's Circumstances
TTITLE7=Honk Tonkin' (I Guess I Done Me Some)
TTITLE8=Two More Bottles Of Wine
TTITLE9=Lesson In The Pain Of Love
TTITLE10=Do It
TTITLE11=Object Of My Affection
TTITLE12=Ruby Louise
TTITLE13=Real Good Itch
TTITLE14=Solid Gold Plated Fool
TTITLE15=Morgan City Fool
TTITLE16=Troubled Woman
EXTD=
EXTT0=
EXTT1=
EXTT2=
EXTT3=
EXTT4=
EXTT5=
EXTT6=
EXTT7=
EXTT8=
EXTT9=
EXTT10=
EXTT11=
EXTT12=
EXTT13=
EXTT14=
EXTT15=
EXTT16=
PLAYORDER=
